<svg width="406" height="87" viewBox="0 0 406 87" fill="none" xmlns="http://www.w3.org/2000/svg">
<g clip-path="url(#clip0_29_28)">
<path d="M46.2931 30.0469H26.5587V23.1562C26.5587 18.8125 26.3712 16.0938 25.9962 15C25.6212 13.9062 24.7306 13.3594 23.3244 13.3594C22.1056 13.3594 21.2775 13.8281 20.84 14.7656C20.4025 15.7031 20.1837 18.1094 20.1837 21.9844V58.4062C20.1837 61.8125 20.4025 64.0625 20.84 65.1562C21.2775 66.2188 22.1525 66.75 23.465 66.75C24.9025 66.75 25.8712 66.1406 26.3712 64.9219C26.9025 63.7031 27.1681 61.3281 27.1681 57.7969V48.7969H23.1837V37.2656H46.2931V78H33.8712L32.0431 72.5625C30.6994 74.9062 28.9962 76.6719 26.9337 77.8594C24.9025 79.0156 22.4962 79.5938 19.715 79.5938C16.4025 79.5938 13.2931 78.7969 10.3869 77.2031C7.51184 75.5781 5.32434 73.5781 3.82434 71.2031C2.32434 68.8281 1.38684 66.3438 1.01184 63.75C0.636841 61.125 0.449341 57.2031 0.449341 51.9844V29.4375C0.449341 22.1875 0.839966 16.9219 1.62122 13.6406C2.40247 10.3594 4.63684 7.35938 8.32434 4.64062C12.0431 1.89062 16.84 0.515625 22.715 0.515625C28.4962 0.515625 33.2931 1.70312 37.1056 4.07812C40.9181 6.45312 43.4025 9.28125 44.5587 12.5625C45.715 15.8125 46.2931 20.5469 46.2931 26.7656V30.0469ZM99.7944 15.7969L94.3569 60.7969C93.5131 67.9219 92.7944 72.7812 92.2006 75.375C91.6381 77.9688 90.685 80.1094 89.3412 81.7969C87.9975 83.4844 86.1225 84.7188 83.7162 85.5C81.3412 86.3125 77.5287 86.7188 72.2787 86.7188H60.7944V76.7812C63.7319 76.7812 65.6225 76.6406 66.4662 76.3594C67.31 76.0469 67.7319 75.375 67.7319 74.3438C67.7319 73.8438 67.3412 71.6719 66.56 67.8281L56.2006 15.7969H73.4037L79.5912 57.75L82.5912 15.7969H99.7944ZM128.592 15.7969L128.264 21.7031C129.733 19.3594 131.483 17.6094 133.514 16.4531C135.546 15.2656 137.858 14.6719 140.452 14.6719C145.514 14.6719 149.499 17.0156 152.405 21.7031C153.999 19.3594 155.796 17.6094 157.796 16.4531C159.796 15.2656 162.014 14.6719 164.452 14.6719C167.671 14.6719 170.327 15.4531 172.421 17.0156C174.546 18.5781 175.905 20.5 176.499 22.7812C177.092 25.0312 177.389 28.7031 177.389 33.7969V78H159.014V37.4531C159.014 32.1406 158.827 28.8594 158.452 27.6094C158.108 26.3281 157.28 25.6875 155.967 25.6875C154.624 25.6875 153.749 26.3125 153.342 27.5625C152.967 28.8125 152.78 32.1094 152.78 37.4531V78H134.405V38.4844C134.405 32.3906 134.249 28.7344 133.936 27.5156C133.655 26.2969 132.842 25.6875 131.499 25.6875C130.655 25.6875 129.936 26.0156 129.342 26.6719C128.749 27.2969 128.421 28.0781 128.358 29.0156C128.296 29.9219 128.264 31.875 128.264 34.875V78H109.889V15.7969H128.592ZM293.579 37.6406V52.875C293.579 58.4688 293.298 62.5781 292.736 65.2031C292.173 67.7969 290.97 70.2344 289.126 72.5156C287.283 74.7656 284.908 76.4375 282.001 77.5312C279.126 78.5938 275.814 79.125 272.064 79.125C267.876 79.125 264.329 78.6719 261.423 77.7656C258.517 76.8281 256.251 75.4375 254.626 73.5938C253.033 71.7188 251.892 69.4688 251.204 66.8438C250.517 64.1875 250.173 60.2188 250.173 54.9375V39C250.173 33.2188 250.798 28.7031 252.048 25.4531C253.298 22.2031 255.548 19.5938 258.798 17.625C262.048 15.6562 266.204 14.6719 271.267 14.6719C275.517 14.6719 279.158 15.3125 282.189 16.5938C285.251 17.8438 287.611 19.4844 289.267 21.5156C290.923 23.5469 292.048 25.6406 292.642 27.7969C293.267 29.9531 293.579 33.2344 293.579 37.6406ZM274.642 32.9531C274.642 29.7656 274.47 27.7656 274.126 26.9531C273.783 26.1094 273.048 25.6875 271.923 25.6875C270.798 25.6875 270.048 26.1094 269.673 26.9531C269.298 27.7656 269.111 29.7656 269.111 32.9531V61.0312C269.111 63.9688 269.298 65.8906 269.673 66.7969C270.048 67.6719 270.783 68.1094 271.876 68.1094C273.001 68.1094 273.736 67.7031 274.079 66.8906C274.454 66.0781 274.642 64.3281 274.642 61.6406V32.9531ZM349.424 37.6406V52.875C349.424 58.4688 349.143 62.5781 348.581 65.2031C348.018 67.7969 346.815 70.2344 344.971 72.5156C343.128 74.7656 340.753 76.4375 337.846 77.5312C334.971 78.5938 331.659 79.125 327.909 79.125C323.721 79.125 320.174 78.6719 317.268 77.7656C314.362 76.8281 312.096 75.4375 310.471 73.5938C308.878 71.7188 307.737 69.4688 307.049 66.8438C306.362 64.1875 306.018 60.2188 306.018 54.9375V39C306.018 33.2188 306.643 28.7031 307.893 25.4531C309.143 22.2031 311.393 19.5938 314.643 17.625C317.893 15.6562 322.049 14.6719 327.112 14.6719C331.362 14.6719 335.003 15.3125 338.034 16.5938C341.096 17.8438 343.456 19.4844 345.112 21.5156C346.768 23.5469 347.893 25.6406 348.487 27.7969C349.112 29.9531 349.424 33.2344 349.424 37.6406ZM330.487 32.9531C330.487 29.7656 330.315 27.7656 329.971 26.9531C329.628 26.1094 328.893 25.6875 327.768 25.6875C326.643 25.6875 325.893 26.1094 325.518 26.9531C325.143 27.7656 324.956 29.7656 324.956 32.9531V61.0312C324.956 63.9688 325.143 65.8906 325.518 66.7969C325.893 67.6719 326.628 68.1094 327.721 68.1094C328.846 68.1094 329.581 67.7031 329.924 66.8906C330.299 66.0781 330.487 64.3281 330.487 61.6406V32.9531ZM405.504 2.10938V78H386.566V73.5C384.754 75.375 382.848 76.7812 380.848 77.7188C378.848 78.6562 376.754 79.125 374.566 79.125C371.629 79.125 369.082 78.3594 366.926 76.8281C364.769 75.2656 363.379 73.4688 362.754 71.4375C362.16 69.4062 361.863 66.0938 361.863 61.5V32.3906C361.863 27.6094 362.16 24.2188 362.754 22.2188C363.379 20.2188 364.785 18.4688 366.973 16.9688C369.16 15.4375 371.769 14.6719 374.801 14.6719C377.144 14.6719 379.285 15.0938 381.223 15.9375C383.191 16.7812 384.973 18.0469 386.566 19.7344V2.10938H405.504ZM386.566 31.4531C386.566 29.1719 386.363 27.6406 385.957 26.8594C385.582 26.0781 384.816 25.6875 383.66 25.6875C382.535 25.6875 381.769 26.0469 381.363 26.7656C380.988 27.4531 380.801 29.0156 380.801 31.4531V61.9219C380.801 64.4531 380.988 66.125 381.363 66.9375C381.738 67.7188 382.457 68.1094 383.519 68.1094C384.738 68.1094 385.551 67.6719 385.957 66.7969C386.363 65.8906 386.566 63.7031 386.566 60.2344V31.4531Z" fill="white"/>
<path d="M194.039 6H207.569V78H194.039V6Z" fill="white"/>
<path d="M219.804 6H232.333V78H219.804V6Z" fill="white"/>
<path d="M238.216 31.6667H240.725V53.6667H238.216V31.6667Z" fill="white"/>
<path d="M185.647 31.6667H188.157V53.6667H185.647V31.6667Z" fill="white"/>
<path d="M241.353 35.8333H243.863V49.5H241.353V35.8333Z" fill="white"/>
<path d="M182.51 35.8333H185.02V49.5H182.51V35.8333Z" fill="white"/>
<path d="M181 45.3333V40L246 40V45.3333L181 45.3333Z" fill="white"/>
<path d="M233.5 29.6667H237.01V55.6667H233.5V29.6667Z" fill="white"/>
<path d="M188.99 29.5H192.5V55.5H188.99V29.5Z" fill="white"/>
</g>
<defs>
<clipPath id="clip0_29_28">
<rect width="406" height="87" fill="white"/>
</clipPath>
</defs>
</svg>
